<svg width="1440" height="653" viewBox="0 0 1440 653" fill="none" xmlns="http://www.w3.org/2000/svg">
<path d="M-51.4286 651.571C87.1429 671.571 254.487 357.051 535.714 398.714C805.714 438.714 1000.87 607.928 1174.29 528.714C1405.71 423 1565.71 335.857 1565.71 244.429C1565.71 139.528 1533.33 63 1460 -59.8572L-115.714 -95.5714L-51.4286 651.571Z" fill="url(#paint0_linear_5_14)"/>
<path d="M-222.857 538.714C-135.714 520.143 -71.4286 355.857 428.571 485.857C928.571 615.857 991.429 585.857 1224.29 438.714C1457.14 291.571 1405.71 287.286 1655.71 284.429C1855.71 282.143 1851.43 255.857 1824.29 243V-72.7143H-191.429L-222.857 538.714Z" fill="url(#paint1_linear_5_14)"/>
<path d="M-160 647.286C-18.5714 631.571 166.776 473.403 418.571 451.571C665.714 430.143 890 545.857 1080 460.143C1302.86 359.604 1328.57 288.714 1581.43 334.429C1688.65 353.813 1532.86 64.9047 1492.86 -78.4286L-115.714 -69.8571L-294.286 517.286L-160 647.286Z" fill="url(#paint2_linear_5_14)"/>
<defs>
<linearGradient id="paint0_linear_5_14" x1="725" y1="-95.5714" x2="725" y2="652.488" gradientUnits="userSpaceOnUse">
<stop stop-color="white"/>
<stop offset="1" stop-color="white" stop-opacity="0.53"/>
</linearGradient>
<linearGradient id="paint1_linear_5_14" x1="807.435" y1="-72.7143" x2="807.435" y2="582.634" gradientUnits="userSpaceOnUse">
<stop stop-color="white"/>
<stop offset="1" stop-color="white" stop-opacity="0.22"/>
</linearGradient>
<linearGradient id="paint2_linear_5_14" x1="712.916" y1="-78.4286" x2="712.916" y2="631.571" gradientUnits="userSpaceOnUse">
<stop stop-color="white"/>
<stop offset="1" stop-color="white" stop-opacity="0.34"/>
</linearGradient>
</defs>
</svg>
